<?xml version="1.0" standalone="no"?>
<!DOCTYPE svg PUBLIC "-//W3C//DTD SVG 20010904//EN"
 "http://www.w3.org/TR/2001/REC-SVG-20010904/DTD/svg10.dtd">
<svg version="1.0" xmlns="http://www.w3.org/2000/svg"
 width="128.000000pt" height="128.000000pt" viewBox="0 0 128.000000 128.000000"
 preserveAspectRatio="xMidYMid meet">
<metadata>
Created by potrace 1.10, written by Peter Selinger 2001-2011
</metadata>
<g transform="translate(0.000000,128.000000) scale(0.100000,-0.100000)"
fill="#000000" stroke="none">
<path d="M422 1068 c-7 -7 -12 -19 -12 -27 0 -9 81 -97 180 -196 l180 -180
-180 -180 c-99 -99 -180 -187 -180 -195 0 -20 20 -40 40 -40 8 0 107 92 219
204 176 176 202 206 193 222 -18 33 -398 404 -413 404 -8 0 -20 -5 -27 -12z"/>
</g>
</svg>
