<?xml version="1.0" encoding="UTF-8"?>
<svg version="1.1" xmlns="http://www.w3.org/2000/svg" width="512" height="512">
<path d="M0 0 C4.1796989 2.8497947 7.11864324 5.98092971 8.75 10.875 C8.84428987 12.3336225 8.88368146 13.79614931 8.8886652 15.25780773 C8.89413964 16.15901354 8.89961409 17.06021935 8.90525442 17.98873442 C8.90623253 18.97996961 8.90721064 19.9712048 8.90821838 20.99247742 C8.91562535 22.57053176 8.91562535 22.57053176 8.92318195 24.180466 C8.9385994 27.72276671 8.94692908 31.26504923 8.95532227 34.80737305 C8.96489745 37.3398047 8.97490731 39.87223474 8.98532104 42.40466309 C9.00679531 47.86561737 9.02523203 53.32656862 9.04092598 58.78754234 C9.06362211 66.68322698 9.0917653 74.57888477 9.12124526 82.47454665 C9.16892431 95.28420741 9.21218765 108.09387913 9.25268555 120.90356445 C9.29203888 133.3482346 9.33346471 145.79289499 9.37768555 158.23754883 C9.38040982 159.00441852 9.38313409 159.77128821 9.38594092 160.56139638 C9.39962037 164.40849091 9.41334065 168.2555853 9.42708123 172.10267961 C9.54105093 204.02676629 9.6478592 235.9508732 9.75 267.875 C12.94176092 264.71260418 16.1276081 261.54431241 19.3125 258.375 C20.20775391 257.488125 21.10300781 256.60125 22.02539062 255.6875 C26.6366113 251.09317024 31.12035855 246.46051723 35.3369751 241.49961853 C37.24576179 239.30500028 39.31937263 237.35908121 41.5 235.4375 C42.23734375 234.77878906 42.9746875 234.12007812 43.734375 233.44140625 C48.36080121 229.8460634 54.16608715 230.30700887 59.75 230.875 C64.63351295 233.18356976 67.26973231 236.09818815 69.75 240.875 C71.21285376 246.92146223 71.00836423 251.47602755 67.75 256.875 C65.96177322 258.93246542 64.09317749 260.79015546 62.078125 262.625 C60.17510833 264.46415705 58.50615772 266.30182711 56.796875 268.3125 C50.91913418 275.10539469 44.38687031 281.29252873 38.00195312 287.60253906 C29.46392621 296.04773456 29.46392621 296.04773456 21.42285156 304.96191406 C17.9925151 308.88487328 14.29632029 312.55432601 10.625 316.25 C9.83996094 317.05566406 9.05492188 317.86132812 8.24609375 318.69140625 C7.48167969 319.46097656 6.71726562 320.23054688 5.9296875 321.0234375 C5.24632324 321.71614746 4.56295898 322.40885742 3.85888672 323.12255859 C0.34291315 326.04426018 -3.15591853 327.16326694 -7.6875 327.1875 C-8.40808594 327.20425781 -9.12867187 327.22101563 -9.87109375 327.23828125 C-15.45850127 326.38503183 -19.31607594 323.18201568 -23.18359375 319.26953125 C-24.08013672 318.36783203 -24.97667969 317.46613281 -25.90039062 316.53710938 C-27.28000977 315.12655273 -27.28000977 315.12655273 -28.6875 313.6875 C-30.06131836 312.30594727 -30.06131836 312.30594727 -31.46289062 310.89648438 C-35.29882434 307.01649112 -39.08709523 303.1322283 -42.62890625 298.98046875 C-47.65999868 293.12584989 -53.26176077 287.79605589 -58.75 282.375 C-65.47715206 275.73019722 -72.15544762 269.11686077 -78.25 261.875 C-79.37314443 260.58171953 -80.49792645 259.28985774 -81.625 258 C-85.6203097 253.40646211 -85.59230278 249.89334731 -85.52734375 243.859375 C-85.02970509 238.50450268 -82.49904972 236.06159723 -78.75 232.5 C-73.69221514 230.15174274 -68.73314207 229.90402693 -63.25 230.875 C-58.17068376 233.65412124 -54.32523816 237.52461158 -50.3125 241.625 C-49.38183716 242.56533081 -49.38183716 242.56533081 -48.43237305 243.5246582 C-44.86902222 247.14806287 -41.43399668 250.83693639 -38.16235352 254.72753906 C-35.72696812 257.46233416 -33.1421572 260.03600732 -30.54296875 262.61328125 C-30.03326538 263.12072876 -29.52356201 263.62817627 -28.99841309 264.15100098 C-27.75008265 265.393481 -26.50019813 266.63439929 -25.25 267.875 C-25.24761165 266.55602156 -25.24522329 265.23704311 -25.24276257 263.87809563 C-25.18540975 232.57219325 -25.11268423 201.26636821 -25.02101372 169.96054851 C-25.00974548 166.10781392 -24.99860704 162.25507895 -24.98754883 158.40234375 C-24.98534514 157.63532962 -24.98314146 156.86831548 -24.980871 156.0780585 C-24.94549316 143.65669185 -24.92063177 131.23532527 -24.89965298 118.81392692 C-24.8778948 106.06957775 -24.84484423 93.32529399 -24.80129844 80.58100045 C-24.77478198 72.71631079 -24.75708658 64.85170265 -24.75065396 56.9869705 C-24.74477919 50.95751392 -24.72319757 44.92821822 -24.69572449 38.89881706 C-24.68691687 36.42446237 -24.68322728 33.95008346 -24.68499184 31.47571373 C-24.6866387 28.10134028 -24.6699946 24.72753644 -24.64872742 21.35324097 C-24.65357499 20.3707443 -24.65842257 19.38824764 -24.66341704 18.37597835 C-24.60102618 12.39073759 -23.95676596 7.84257414 -19.75 3.23046875 C-13.53889945 -1.60577881 -7.46717104 -2.58478998 0 0 Z " fill="#000000" transform="translate(117.25,93.125)"/>
<path d="M0 0 C0.94838645 -0.00438225 1.8967729 -0.00876451 2.87389833 -0.01327956 C6.06586197 -0.02668129 9.257798 -0.03284952 12.44978333 -0.03897095 C14.73278427 -0.04687082 17.01578397 -0.0551397 19.29878235 -0.06375122 C26.80849513 -0.08998423 34.31821352 -0.10527997 41.82795715 -0.11953735 C44.41164466 -0.12489647 46.99533212 -0.13027398 49.57901955 -0.13566971 C60.32523142 -0.15730014 71.07144005 -0.17618867 81.81766796 -0.1872921 C84.60600984 -0.19022174 87.39435169 -0.19318341 90.18269348 -0.19619751 C90.87571174 -0.19694356 91.56872999 -0.19768961 92.2827488 -0.19845827 C103.50635428 -0.21110881 114.72980123 -0.24432837 125.95333263 -0.28599934 C137.47960123 -0.32844306 149.00576409 -0.35158244 160.5321129 -0.35721266 C167.00242098 -0.36086853 173.47246032 -0.37291544 179.94269371 -0.4053154 C186.03057723 -0.43536348 192.11802894 -0.44171915 198.20597076 -0.42993164 C200.43924633 -0.42971064 202.67254174 -0.43803763 204.90574837 -0.45558548 C207.95770506 -0.47825958 211.00809366 -0.4699894 214.06005859 -0.45410156 C214.94130046 -0.46798365 215.82254232 -0.48186574 216.73048848 -0.49616849 C222.91614154 -0.41697071 227.04776954 1.22027434 231.8474884 5.15390015 C234.78385998 8.77503822 235.25778182 11.54222648 235.2224884 16.15390015 C235.23022278 17.16452515 235.23795715 18.17515015 235.2459259 19.21640015 C234.61623025 23.85886221 232.46344103 27.00360481 228.8474884 29.90390015 C223.94263288 33.58254179 219.66661559 33.30229989 213.77090454 33.30107117 C212.36057553 33.3065862 212.36057553 33.3065862 210.92175502 33.31221265 C207.75742696 33.32326419 204.59313172 33.32709583 201.42878723 33.3309021 C199.16549067 33.33716564 196.90219515 33.34381234 194.63890076 33.35081482 C188.47965035 33.36823466 182.32040771 33.37877928 176.16113877 33.38702035 C172.31419823 33.39216844 168.46726011 33.39824426 164.62032127 33.40453148 C153.96675388 33.42140224 143.31318991 33.43603698 132.6596117 33.44328022 C129.89533296 33.44519007 127.13105422 33.44711041 124.36677551 33.44906616 C123.33621998 33.44979177 123.33621998 33.44979177 122.28484514 33.45053204 C111.15826357 33.45883023 100.03178959 33.48416369 88.905255 33.51664684 C77.47842686 33.54973431 66.05167895 33.56739786 54.624798 33.57092446 C48.21042396 33.5732766 41.79621994 33.58225865 35.38189125 33.60738564 C29.34657887 33.63064557 23.31154872 33.63490775 17.27620316 33.62462425 C15.0622851 33.62412828 12.84835325 33.63046669 10.63447762 33.6441803 C7.60897686 33.66187123 4.58449201 33.6548063 1.55899048 33.64164734 C0.24880053 33.65810121 0.24880053 33.65810121 -1.0878579 33.67488748 C-6.8948589 33.61402678 -11.29865905 32.42031729 -16.1525116 29.15390015 C-20.59177807 24.48697899 -21.4646674 20.67641333 -21.3634491 14.4312439 C-20.91211298 9.55848546 -18.7334609 6.46804991 -15.1525116 3.34140015 C-10.21038767 -0.26223188 -5.89084683 0.00328578 0 0 Z " fill="#000000" transform="translate(245.1525115966797,91.84609985351563)"/>
<path d="M0 0 C0.72943461 -0.00297112 1.45886922 -0.00594224 2.21040791 -0.0090034 C4.65535417 -0.01767705 7.10025138 -0.01919751 9.54521179 -0.02069092 C11.29796961 -0.02532001 13.05072642 -0.0303448 14.80348206 -0.03573608 C19.56595963 -0.04885273 24.32842311 -0.05530354 29.09091592 -0.05974674 C32.06663658 -0.06267848 35.0423534 -0.06678346 38.01807213 -0.07125092 C47.32938218 -0.08492352 56.64068343 -0.0945915 65.95200282 -0.09845281 C76.69889444 -0.10293399 87.4456589 -0.12048573 98.19251186 -0.1494534 C106.50091605 -0.17107071 114.80928447 -0.1811571 123.11771649 -0.18249393 C128.07940541 -0.18354186 133.04097475 -0.1894473 138.00263405 -0.20731354 C142.67052459 -0.22379518 147.33820568 -0.22594926 152.00611496 -0.21717453 C153.71733219 -0.21640422 155.42856069 -0.22074604 157.13974953 -0.23063278 C159.48013367 -0.24335961 161.81977678 -0.23747194 164.16015625 -0.22705078 C165.46851598 -0.22851734 166.77687571 -0.2299839 168.1248827 -0.2314949 C173.6564761 0.33284653 177.45153163 1.90935473 181.58305359 5.76544189 C184.86936164 10.18721851 186.20911536 15.07549318 185.42680359 20.54278564 C183.86078993 26.14501309 181.57898514 28.93482086 176.77055359 32.14044189 C173.26473575 33.30904784 170.1119461 33.28856924 166.46481323 33.28761292 C165.34025796 33.29312795 165.34025796 33.29312795 164.1929844 33.29875439 C161.67350513 33.3097932 159.1540671 33.31363538 156.63456726 33.31744385 C154.8310737 33.32370828 153.02758143 33.33035506 151.22409058 33.33735657 C146.3190676 33.35476641 141.41405438 33.36531801 136.50900817 33.3735621 C133.4453583 33.37871165 130.38171146 33.38478737 127.31806374 33.39107323 C117.73498127 33.41012415 108.1519065 33.42435624 98.56880873 33.4326852 C87.50207941 33.44246219 76.43554986 33.46879421 65.36889094 33.50918609 C56.81763798 33.5393276 48.26644236 33.55415215 39.7151373 33.55746621 C34.60643073 33.55981866 29.4979376 33.56880474 24.38928795 33.59392738 C19.58348274 33.61717914 14.77803197 33.62145301 9.97218513 33.611166 C8.20894061 33.61066985 6.4456788 33.6170137 4.68248749 33.63072205 C2.27364769 33.64840147 -0.13391461 33.64135519 -2.54275513 33.62818909 C-3.58737174 33.64464296 -3.58737174 33.64464296 -4.65309173 33.66142923 C-9.61614702 33.59601484 -12.38880301 32.21062351 -16.22944641 29.14044189 C-20.45931934 24.45328541 -21.64786126 20.75484213 -21.57710266 14.55841064 C-20.81673685 9.2700237 -17.84955279 5.36540037 -13.66694641 2.20294189 C-9.0282 0.18092423 -5.07001242 0.01153706 0 0 Z " fill="#000000" transform="translate(245.2294464111328,189.85955810546875)"/>
<path d="M0 0 C1.12998917 -0.0071553 2.25997833 -0.01431061 3.42420959 -0.02168274 C4.66994247 -0.02437164 5.91567535 -0.02706055 7.19915771 -0.02983093 C8.50654404 -0.03640213 9.81393036 -0.04297333 11.16093445 -0.04974365 C14.75407335 -0.06715952 18.34719895 -0.0777073 21.94036961 -0.08594918 C24.18539473 -0.09109882 26.43041572 -0.09717461 28.67543793 -0.10346031 C35.6999017 -0.12251529 42.72435496 -0.13674495 49.74883962 -0.14507228 C57.85663545 -0.15484247 65.96415811 -0.18115474 74.07185769 -0.22157317 C80.33860895 -0.25174148 86.60528194 -0.26654188 92.87210441 -0.26985329 C96.61487424 -0.27220326 100.35735234 -0.28115606 104.10004425 -0.30631447 C108.27778791 -0.33394291 112.45492224 -0.3297619 116.63275146 -0.32279968 C117.87038742 -0.33560974 119.10802338 -0.3484198 120.38316345 -0.36161804 C126.76568114 -0.3227849 130.87909667 -0.25564506 135.67474365 4.14717102 C139.66200914 8.7810201 140.91654273 13.13373311 140.67474365 19.14717102 C139.05486595 25.12047005 135.81241379 28.85464263 130.67474365 32.14717102 C127.52518809 33.1448976 124.63652995 33.27717545 121.3434906 33.28761292 C120.26268219 33.29332306 119.18187378 33.2990332 118.0683136 33.30491638 C116.88744675 33.30603424 115.7065799 33.3071521 114.4899292 33.30830383 C113.24237854 33.31326874 111.99482788 33.31823364 110.70947266 33.323349 C107.28991144 33.33544732 103.87041128 33.34291305 100.45083594 33.34735966 C98.31266311 33.35029437 96.1744956 33.35439993 94.03632545 33.35886383 C87.34130176 33.37253211 80.64629027 33.38220207 73.95125359 33.38606572 C66.23236745 33.39054518 58.51365849 33.40809054 50.79482621 33.43706632 C44.82185814 33.4587072 38.84893984 33.46877128 32.87593299 33.47010684 C29.3115083 33.47115314 25.74725034 33.47702337 22.18286705 33.49492645 C18.20443421 33.51452116 14.22622159 33.51010855 10.2477417 33.50361633 C9.07294754 33.51283112 7.89815338 33.5220459 6.6877594 33.53153992 C-1.00803761 33.49219324 -6.15684821 32.89312474 -12.13775635 27.70967102 C-15.91097523 23.28961461 -16.73073041 20.10829901 -16.5713501 14.38935852 C-16.03526346 9.50501363 -13.8894837 6.44709474 -10.26275635 3.33467102 C-6.38502901 0.44700173 -4.75439402 0.02060839 0 0 Z " fill="#000000" transform="translate(240.32525634765625,288.8528289794922)"/>
<path d="M0 0 C0.77762695 -0.0065712 1.55525391 -0.0131424 2.35644531 -0.01991272 C4.9313975 -0.03963091 7.50629133 -0.05130644 10.08129883 -0.0612793 C11.40265052 -0.06739259 11.40265052 -0.06739259 12.75069618 -0.07362938 C17.41533803 -0.09448613 22.07995052 -0.10878825 26.74462891 -0.11816406 C31.55194545 -0.12921373 36.35879725 -0.16359798 41.16594982 -0.20333576 C44.87127007 -0.22954224 48.57648039 -0.23785958 52.28188515 -0.24144554 C54.05322716 -0.2463029 55.82456455 -0.25789257 57.59581566 -0.27648354 C60.08247522 -0.30095622 62.56794319 -0.2998953 65.0546875 -0.29296875 C65.77862198 -0.30577881 66.50255646 -0.31858887 67.24842834 -0.33178711 C72.656543 -0.27722084 76.82317189 1.20151296 81.35083008 4.17700195 C85.144472 8.26246248 86.17123916 12.21275512 86.51489258 17.64575195 C86.1580859 23.15076935 83.70790892 26.88612208 79.78833008 30.61450195 C75.42303565 33.41276762 71.49905157 33.33072172 66.48632812 33.33813477 C65.68598145 33.34309967 64.88563477 33.34806458 64.06103516 33.35317993 C61.41153098 33.3677926 58.76208669 33.37460229 56.11254883 33.38012695 C54.27032978 33.38587943 52.42811074 33.39163715 50.58589172 33.3973999 C46.72148357 33.40790753 42.85709621 33.41375166 38.99267578 33.41723633 C34.04624666 33.4227186 29.10009315 33.44674191 24.15375042 33.47520828 C20.34728702 33.49385306 16.54088974 33.49904126 12.73438454 33.5005722 C10.91116645 33.50359543 9.08794944 33.51161281 7.26477623 33.52475739 C4.71081087 33.54185537 2.15751535 33.53992853 -0.39648438 33.53344727 C-1.52122414 33.54726944 -1.52122414 33.54726944 -2.66868591 33.56137085 C-8.09705242 33.51832379 -12.234877 32.37911236 -16.29370117 28.67700195 C-20.5236411 23.24457075 -21.44543071 18.91718134 -20.64916992 12.17700195 C-18.83347642 6.85442615 -15.51087922 3.86645816 -10.64916992 1.17700195 C-7.04854297 -0.02320703 -3.74901404 0.01373293 0 0 Z " fill="#000000" transform="translate(244.649169921875,386.822998046875)"/>
</svg>
